%TF.GenerationSoftware,KiCad,Pcbnew,9.0.3*%
%TF.CreationDate,2025-07-11T23:54:27+00:00*%
%TF.ProjectId,hackpadhahaha,6861636b-7061-4646-9861-686168612e6b,rev?*%
%TF.SameCoordinates,Original*%
%TF.FileFunction,Copper,L2,Bot*%
%TF.FilePolarity,Positive*%
%FSLAX46Y46*%
G04 Gerber Fmt 4.6, Leading zero omitted, Abs format (unit mm)*
G04 Created by KiCad (PCBNEW 9.0.3) date 2025-07-11 23:54:27*
%MOMM*%
%LPD*%
G01*
G04 APERTURE LIST*
G04 Aperture macros list*
%AMRoundRect*
0 Rectangle with rounded corners*
0 $1 Rounding radius*
0 $2 $3 $4 $5 $6 $7 $8 $9 X,Y pos of 4 corners*
0 Add a 4 corners polygon primitive as box body*
4,1,4,$2,$3,$4,$5,$6,$7,$8,$9,$2,$3,0*
0 Add four circle primitives for the rounded corners*
1,1,$1+$1,$2,$3*
1,1,$1+$1,$4,$5*
1,1,$1+$1,$6,$7*
1,1,$1+$1,$8,$9*
0 Add four rect primitives between the rounded corners*
20,1,$1+$1,$2,$3,$4,$5,0*
20,1,$1+$1,$4,$5,$6,$7,0*
20,1,$1+$1,$6,$7,$8,$9,0*
20,1,$1+$1,$8,$9,$2,$3,0*%
G04 Aperture macros list end*
%TA.AperFunction,ComponentPad*%
%ADD10C,1.524000*%
%TD*%
%TA.AperFunction,ComponentPad*%
%ADD11C,1.600000*%
%TD*%
%TA.AperFunction,SMDPad,CuDef*%
%ADD12RoundRect,0.140000X0.660000X-0.560000X0.660000X0.560000X-0.660000X0.560000X-0.660000X-0.560000X0*%
%TD*%
%TA.AperFunction,ComponentPad*%
%ADD13C,1.100000*%
%TD*%
%TA.AperFunction,SMDPad,CuDef*%
%ADD14RoundRect,0.110000X0.690000X0.440000X-0.690000X0.440000X-0.690000X-0.440000X0.690000X-0.440000X0*%
%TD*%
%TA.AperFunction,ComponentPad*%
%ADD15C,2.200000*%
%TD*%
%TA.AperFunction,ViaPad*%
%ADD16C,0.600000*%
%TD*%
%TA.AperFunction,Conductor*%
%ADD17C,0.200000*%
%TD*%
G04 APERTURE END LIST*
D10*
%TO.P,U1,1,GPIO26/ADC0/A0*%
%TO.N,Net-(D1-DIN)*%
X268350000Y-54500000D03*
%TO.P,U1,2,GPIO27/ADC1/A1*%
%TO.N,unconnected-(U1-GPIO27{slash}ADC1{slash}A1-Pad2)*%
X265810000Y-54500000D03*
%TO.P,U1,3,GPIO28/ADC2/A2*%
%TO.N,unconnected-(U1-GPIO28{slash}ADC2{slash}A2-Pad3)*%
X263270000Y-54500000D03*
%TO.P,U1,4,GPIO29/ADC3/A3*%
%TO.N,Net-(U1-GPIO29{slash}ADC3{slash}A3)*%
X260730000Y-54500000D03*
%TO.P,U1,5,GPIO6/SDA*%
%TO.N,Net-(U1-GPIO6{slash}SDA)*%
X258190000Y-54500000D03*
%TO.P,U1,6,GPIO7/SCL*%
%TO.N,Net-(U1-GPIO7{slash}SCL)*%
X255650000Y-54500000D03*
%TO.P,U1,7,GPIO0/TX*%
%TO.N,Net-(U1-GPIO0{slash}TX)*%
X253110000Y-54500000D03*
%TO.P,U1,8,GPIO1/RX*%
%TO.N,Net-(U1-GPIO1{slash}RX)*%
X253110000Y-69740000D03*
%TO.P,U1,9,GPIO2/SCK*%
%TO.N,Net-(U1-GPIO2{slash}SCK)*%
X255650000Y-69740000D03*
%TO.P,U1,10,GPIO4/MISO*%
%TO.N,Net-(U1-GPIO4{slash}MISO)*%
X258190000Y-69740000D03*
%TO.P,U1,11,GPIO3/MOSI*%
%TO.N,Net-(U1-GPIO3{slash}MOSI)*%
X260730000Y-69740000D03*
%TO.P,U1,12,3V3*%
%TO.N,unconnected-(U1-3V3-Pad12)*%
X263270000Y-69740000D03*
%TO.P,U1,13,GND*%
%TO.N,GND*%
X265810000Y-69740000D03*
%TO.P,U1,14,VBUS*%
%TO.N,+5V*%
X268350000Y-69740000D03*
D11*
%TO.P,U1,15*%
%TO.N,N/C*%
X264540000Y-67120994D03*
D12*
X264540000Y-67820000D03*
D11*
%TO.P,U1,16*%
X262000000Y-67120994D03*
D12*
X262000000Y-67820000D03*
D11*
%TO.P,U1,17*%
X259460000Y-67120994D03*
D12*
X259460000Y-67820000D03*
D11*
%TO.P,U1,18*%
X256920000Y-67120994D03*
D12*
X256920000Y-67820000D03*
%TO.P,U1,19*%
X256920000Y-56260994D03*
D11*
X256920000Y-56960994D03*
D12*
%TO.P,U1,20*%
X259460000Y-56260994D03*
D11*
X259460000Y-56960994D03*
D12*
%TO.P,U1,21*%
X262000000Y-56260994D03*
D11*
X262000000Y-56960994D03*
D12*
%TO.P,U1,22*%
X264540000Y-56260994D03*
D11*
X264540000Y-56960994D03*
D13*
%TO.P,U1,23*%
X255155189Y-61120000D03*
D14*
X254400000Y-61120000D03*
D13*
%TO.P,U1,24*%
X255155189Y-63120000D03*
D14*
X254400000Y-63120000D03*
%TD*%
D15*
%TO.P,SW8,1,1*%
%TO.N,GND*%
X235000000Y-57000000D03*
%TO.P,SW8,2,2*%
%TO.N,Net-(U1-GPIO3{slash}MOSI)*%
X228650000Y-59540000D03*
%TD*%
%TO.P,SW7,1,1*%
%TO.N,GND*%
X216000000Y-57000000D03*
%TO.P,SW7,2,2*%
%TO.N,Net-(U1-GPIO4{slash}MISO)*%
X209650000Y-59540000D03*
%TD*%
%TO.P,SW6,1,1*%
%TO.N,GND*%
X197000000Y-57000000D03*
%TO.P,SW6,2,2*%
%TO.N,Net-(U1-GPIO2{slash}SCK)*%
X190650000Y-59540000D03*
%TD*%
%TO.P,SW5,1,1*%
%TO.N,GND*%
X178000000Y-57000000D03*
%TO.P,SW5,2,2*%
%TO.N,Net-(U1-GPIO1{slash}RX)*%
X171650000Y-59540000D03*
%TD*%
%TO.P,SW4,1,1*%
%TO.N,GND*%
X159000000Y-57000000D03*
%TO.P,SW4,2,2*%
%TO.N,Net-(U1-GPIO0{slash}TX)*%
X152650000Y-59540000D03*
%TD*%
%TO.P,SW3,1,1*%
%TO.N,GND*%
X140000000Y-57000000D03*
%TO.P,SW3,2,2*%
%TO.N,Net-(U1-GPIO7{slash}SCL)*%
X133650000Y-59540000D03*
%TD*%
%TO.P,SW2,1,1*%
%TO.N,GND*%
X121000000Y-57000000D03*
%TO.P,SW2,2,2*%
%TO.N,Net-(U1-GPIO6{slash}SDA)*%
X114650000Y-59540000D03*
%TD*%
%TO.P,SW1,1,1*%
%TO.N,GND*%
X102000000Y-57000000D03*
%TO.P,SW1,2,2*%
%TO.N,Net-(U1-GPIO29{slash}ADC3{slash}A3)*%
X95650000Y-59540000D03*
%TD*%
D16*
%TO.N,Net-(D1-DOUT)*%
X243400000Y-62000000D03*
X241500000Y-62000000D03*
%TO.N,+5V*%
X251500000Y-60500000D03*
X251000000Y-67000000D03*
%TO.N,Net-(U1-GPIO29{slash}ADC3{slash}A3)*%
X245000000Y-46500000D03*
%TO.N,Net-(U1-GPIO6{slash}SDA)*%
X245000000Y-47500000D03*
%TO.N,Net-(U1-GPIO7{slash}SCL)*%
X245000000Y-48500000D03*
%TO.N,Net-(U1-GPIO0{slash}TX)*%
X245000000Y-49499000D03*
%TO.N,Net-(U1-GPIO1{slash}RX)*%
X248500000Y-72500000D03*
%TO.N,Net-(U1-GPIO3{slash}MOSI)*%
X248500000Y-76000000D03*
%TO.N,Net-(U1-GPIO4{slash}MISO)*%
X248500000Y-75000000D03*
%TO.N,Net-(U1-GPIO2{slash}SCK)*%
X248500000Y-73500000D03*
%TD*%
D17*
%TO.N,Net-(D1-DOUT)*%
X241500000Y-62000000D02*
X243400000Y-62000000D01*
%TO.N,+5V*%
X251000000Y-67000000D02*
X251000000Y-69133310D01*
X251000000Y-69133310D02*
X252669690Y-70803000D01*
X252669690Y-70803000D02*
X267287000Y-70803000D01*
X267287000Y-70803000D02*
X268350000Y-69740000D01*
X251500000Y-60500000D02*
X251500000Y-66626690D01*
X251500000Y-66626690D02*
X254500000Y-69626690D01*
X254500000Y-69626690D02*
X254500000Y-70093310D01*
X254500000Y-70093310D02*
X255209690Y-70803000D01*
X255209690Y-70803000D02*
X267287000Y-70803000D01*
%TO.N,Net-(U1-GPIO0{slash}TX)*%
X245000000Y-49500000D02*
X245000000Y-49499000D01*
%TO.N,Net-(U1-GPIO29{slash}ADC3{slash}A3)*%
X252730000Y-46500000D02*
X245000000Y-46500000D01*
X260730000Y-54500000D02*
X252730000Y-46500000D01*
%TO.N,Net-(U1-GPIO6{slash}SDA)*%
X251190000Y-47500000D02*
X245000000Y-47500000D01*
X258190000Y-54500000D02*
X251190000Y-47500000D01*
%TO.N,Net-(U1-GPIO7{slash}SCL)*%
X249650000Y-48500000D02*
X245000000Y-48500000D01*
X255650000Y-54500000D02*
X249650000Y-48500000D01*
%TO.N,Net-(U1-GPIO0{slash}TX)*%
X248110000Y-49500000D02*
X245000000Y-49500000D01*
X253110000Y-54500000D02*
X248110000Y-49500000D01*
%TO.N,Net-(U1-GPIO1{slash}RX)*%
X248500000Y-72500000D02*
X245500000Y-69500000D01*
X245500000Y-69500000D02*
X245500000Y-50000000D01*
X245500000Y-50000000D02*
X245500000Y-50432900D01*
X245500000Y-50432900D02*
X245166100Y-50099000D01*
X245166100Y-50099000D02*
X181091000Y-50099000D01*
X181091000Y-50099000D02*
X171650000Y-59540000D01*
%TO.N,Net-(U1-GPIO2{slash}SCK)*%
X245000000Y-50500000D02*
X199690000Y-50500000D01*
X199690000Y-50500000D02*
X190650000Y-59540000D01*
%TO.N,Net-(U1-GPIO4{slash}MISO)*%
X244500000Y-51000000D02*
X218190000Y-51000000D01*
X218190000Y-51000000D02*
X209650000Y-59540000D01*
%TO.N,Net-(U1-GPIO3{slash}MOSI)*%
X244000000Y-51500000D02*
X236690000Y-51500000D01*
X236690000Y-51500000D02*
X228650000Y-59540000D01*
%TO.N,Net-(U1-GPIO2{slash}SCK)*%
X245000000Y-70000000D02*
X245000000Y-50500000D01*
X248500000Y-73500000D02*
X245000000Y-70000000D01*
%TO.N,Net-(U1-GPIO4{slash}MISO)*%
X244500000Y-71000000D02*
X244500000Y-51000000D01*
X248500000Y-75000000D02*
X244500000Y-71000000D01*
%TO.N,Net-(U1-GPIO3{slash}MOSI)*%
X244000000Y-71500000D02*
X244000000Y-51500000D01*
X248500000Y-76000000D02*
X244000000Y-71500000D01*
%TD*%
M02*
