%TF.GenerationSoftware,KiCad,Pcbnew,9.0.3*%
%TF.CreationDate,2025-07-11T23:54:28+00:00*%
%TF.ProjectId,hackpadhahaha,6861636b-7061-4646-9861-686168612e6b,rev?*%
%TF.SameCoordinates,Original*%
%TF.FileFunction,Soldermask,Bot*%
%TF.FilePolarity,Negative*%
%FSLAX46Y46*%
G04 Gerber Fmt 4.6, Leading zero omitted, Abs format (unit mm)*
G04 Created by KiCad (PCBNEW 9.0.3) date 2025-07-11 23:54:28*
%MOMM*%
%LPD*%
G01*
G04 APERTURE LIST*
G04 Aperture macros list*
%AMRoundRect*
0 Rectangle with rounded corners*
0 $1 Rounding radius*
0 $2 $3 $4 $5 $6 $7 $8 $9 X,Y pos of 4 corners*
0 Add a 4 corners polygon primitive as box body*
4,1,4,$2,$3,$4,$5,$6,$7,$8,$9,$2,$3,0*
0 Add four circle primitives for the rounded corners*
1,1,$1+$1,$2,$3*
1,1,$1+$1,$4,$5*
1,1,$1+$1,$6,$7*
1,1,$1+$1,$8,$9*
0 Add four rect primitives between the rounded corners*
20,1,$1+$1,$2,$3,$4,$5,0*
20,1,$1+$1,$4,$5,$6,$7,0*
20,1,$1+$1,$6,$7,$8,$9,0*
20,1,$1+$1,$8,$9,$2,$3,0*%
G04 Aperture macros list end*
%ADD10C,1.524000*%
%ADD11C,1.600000*%
%ADD12RoundRect,0.140000X0.660000X-0.560000X0.660000X0.560000X-0.660000X0.560000X-0.660000X-0.560000X0*%
%ADD13C,1.100000*%
%ADD14RoundRect,0.110000X0.690000X0.440000X-0.690000X0.440000X-0.690000X-0.440000X0.690000X-0.440000X0*%
%ADD15C,1.700000*%
%ADD16C,4.000000*%
%ADD17C,2.200000*%
G04 APERTURE END LIST*
D10*
%TO.C,U1*%
X268350000Y-54500000D03*
X265810000Y-54500000D03*
X263270000Y-54500000D03*
X260730000Y-54500000D03*
X258190000Y-54500000D03*
X255650000Y-54500000D03*
X253110000Y-54500000D03*
X253110000Y-69740000D03*
X255650000Y-69740000D03*
X258190000Y-69740000D03*
X260730000Y-69740000D03*
X263270000Y-69740000D03*
X265810000Y-69740000D03*
X268350000Y-69740000D03*
D11*
X264540000Y-67120994D03*
D12*
X264540000Y-67820000D03*
D11*
X262000000Y-67120994D03*
D12*
X262000000Y-67820000D03*
D11*
X259460000Y-67120994D03*
D12*
X259460000Y-67820000D03*
D11*
X256920000Y-67120994D03*
D12*
X256920000Y-67820000D03*
X256920000Y-56260994D03*
D11*
X256920000Y-56960994D03*
D12*
X259460000Y-56260994D03*
D11*
X259460000Y-56960994D03*
D12*
X262000000Y-56260994D03*
D11*
X262000000Y-56960994D03*
D12*
X264540000Y-56260994D03*
D11*
X264540000Y-56960994D03*
D13*
X255155189Y-61120000D03*
D14*
X254400000Y-61120000D03*
D13*
X255155189Y-63120000D03*
D14*
X254400000Y-63120000D03*
%TD*%
D15*
%TO.C,SW8*%
X227380000Y-62080000D03*
D16*
X232460000Y-62080000D03*
D15*
X237540000Y-62080000D03*
D17*
X235000000Y-57000000D03*
X228650000Y-59540000D03*
%TD*%
D15*
%TO.C,SW7*%
X208380000Y-62080000D03*
D16*
X213460000Y-62080000D03*
D15*
X218540000Y-62080000D03*
D17*
X216000000Y-57000000D03*
X209650000Y-59540000D03*
%TD*%
D15*
%TO.C,SW6*%
X189380000Y-62080000D03*
D16*
X194460000Y-62080000D03*
D15*
X199540000Y-62080000D03*
D17*
X197000000Y-57000000D03*
X190650000Y-59540000D03*
%TD*%
D15*
%TO.C,SW5*%
X170380000Y-62080000D03*
D16*
X175460000Y-62080000D03*
D15*
X180540000Y-62080000D03*
D17*
X178000000Y-57000000D03*
X171650000Y-59540000D03*
%TD*%
D15*
%TO.C,SW4*%
X151380000Y-62080000D03*
D16*
X156460000Y-62080000D03*
D15*
X161540000Y-62080000D03*
D17*
X159000000Y-57000000D03*
X152650000Y-59540000D03*
%TD*%
D15*
%TO.C,SW3*%
X132380000Y-62080000D03*
D16*
X137460000Y-62080000D03*
D15*
X142540000Y-62080000D03*
D17*
X140000000Y-57000000D03*
X133650000Y-59540000D03*
%TD*%
D15*
%TO.C,SW2*%
X113380000Y-62080000D03*
D16*
X118460000Y-62080000D03*
D15*
X123540000Y-62080000D03*
D17*
X121000000Y-57000000D03*
X114650000Y-59540000D03*
%TD*%
D15*
%TO.C,SW1*%
X94380000Y-62080000D03*
D16*
X99460000Y-62080000D03*
D15*
X104540000Y-62080000D03*
D17*
X102000000Y-57000000D03*
X95650000Y-59540000D03*
%TD*%
M02*
